PathFileType	4	(X/Y/Z)	 s06c0302.trc
DataRate	CameraRate	NumFrames	NumMarkers	Units	OrigDataRate	OrigDataStartFrame	OrigNumFrames
200	200	4	48	mm	200	1	2000
Frame#	Time	racr			lacr			c7			jug			rlel			rdr			llel			ldr			s2			lic			ric			lasi			rasi			rpsi			lpsi			rgt			lgt			rth1			rth2			rth3			rth4			rlfc			rmfc			rsh1			rsh2			rsh3			rsh4			rlmal			rcal			rtoe			rmt5			lth1			lth2			lth4			lth3			llfc			lmfc			llmal			lcal			lmt5			lsh1			lsh2			lsh3			lsh4			ltoe			SBIKE			LBIKE			RBIKE			
		X1	Y1	Z1	X2	Y2	Z2	X3	Y3	Z3	X4	Y4	Z4	X5	Y5	Z5	X6	Y6	Z6	X7	Y7	Z7	X8	Y8	Z8	X9	Y9	Z9	X10	Y10	Z10	X11	Y11	Z11	X12	Y12	Z12	X13	Y13	Z13	X14	Y14	Z14	X15	Y15	Z15	X16	Y16	Z16	X17	Y17	Z17	X18	Y18	Z18	X19	Y19	Z19	X20	Y20	Z20	X21	Y21	Z21	X22	Y22	Z22	X23	Y23	Z23	X24	Y24	Z24	X25	Y25	Z25	X26	Y26	Z26	X27	Y27	Z27	X28	Y28	Z28	X29	Y29	Z29	X30	Y30	Z30	X31	Y31	Z31	X32	Y32	Z32	X33	Y33	Z33	X34	Y34	Z34	X35	Y35	Z35	X36	Y36	Z36	X37	Y37	Z37	X38	Y38	Z38	X39	Y39	Z39	X40	Y40	Z40	X41	Y41	Z41	X42	Y42	Z42	X43	Y43	Z43	X44	Y44	Z44	X45	Y45	Z45	X46	Y46	Z46	X47	Y47	Z47	X48	Y48	Z48	
1	0.0050	463.859586	1322.261970	-50.385140	486.400431	1328.218206	-381.604446	476.438118	1410.212630	-215.423416	489.471862	1254.942763	-211.924876	521.753734	1072.435728	32.307535	719.251911	922.858804	-32.875311	514.489211	1068.286866	-464.967232	712.021246	926.683488	-402.132929	-28.464867	1156.350087	-224.322142	156.304470	1081.783998	-376.498990	124.412202	1108.062113	-44.959429	153.383435	1015.320386	-346.260462	127.943901	1045.658709	-68.347076	10.531659	1185.792103	-190.600914	14.099666	1182.385923	-250.959492	72.283503	1061.585463	-9.428842	96.838733	1019.885951	-408.581040	168.541409	982.873697	-12.370449	254.154241	951.340104	-17.657465	308.483925	883.488194	-21.715792	270.902818	979.477541	-36.803007	367.669347	795.542995	-44.457622	362.136978	770.668433	-153.997002	332.540785	678.673161	-17.443050	326.527005	592.904266	-37.672572	281.534922	518.572100	-39.562996	347.584175	590.793091	-71.568961	250.253096	437.319145	-45.136934	189.596673	401.921612	-94.435338	465.199272	409.732519	-99.433539	372.591267	378.418079	-27.321184	127.057857	903.043868	-415.208034	186.182475	840.509743	-404.150481	216.930250	857.566043	-391.848232	206.399585	753.362243	-395.835665	219.748579	643.204592	-370.162686	210.247610	626.739159	-255.623288	-38.357346	370.716588	-378.480106	-119.025109	359.081688	-333.578389	64.746772	283.015753	-399.384786	151.289246	561.636091	-396.828903	108.051459	487.768667	-380.086350	32.653719	440.235306	-385.384162	124.808932	475.441891	-346.773819	148.739233	273.331721	-338.117820	-203.379794	867.449111	-207.110072	-49.510513	84.003211	-414.318730	-49.179294	79.233607	-17.616166	
2	0.0100	463.857565	1322.226894	-50.378765	486.421850	1328.207549	-381.591699	476.452231	1410.210008	-215.400275	489.483749	1254.924891	-211.906804	521.728327	1072.409143	32.380119	719.222850	922.865673	-32.859628	514.474651	1068.285959	-465.009804	712.012750	926.674915	-402.117248	-28.430786	1156.350163	-224.314587	156.331276	1081.767897	-376.438881	124.454464	1108.048859	-44.961741	153.416206	1015.336715	-346.236284	127.989348	1045.648011	-68.355727	10.574727	1185.793006	-190.605723	14.176395	1182.404633	-250.983916	72.309612	1061.561364	-9.438629	96.861515	1019.895119	-408.578882	168.585942	982.829518	-12.398388	254.190121	951.346159	-17.660165	308.533114	883.478955	-21.735252	270.951481	979.450497	-36.828575	367.759080	795.547611	-44.491913	362.157841	770.615944	-154.045661	332.585984	678.635222	-17.499235	326.565167	592.887132	-37.697190	281.585880	518.527299	-39.588166	347.629833	590.751310	-71.605142	250.301896	437.284078	-45.148954	189.641685	401.854371	-94.462669	465.219479	409.644194	-99.426937	372.612907	378.353849	-27.327433	127.087513	903.065837	-415.227852	186.226818	840.499408	-404.146626	216.967005	857.573419	-391.851073	206.415664	753.365935	-395.838193	219.769008	643.219916	-370.180794	210.294510	626.752106	-255.655845	-38.380209	370.783742	-378.489334	-119.057596	359.170266	-333.571425	64.732267	283.084082	-399.403616	151.291410	561.681013	-396.871806	108.045613	487.800118	-380.100002	32.192912	440.203802	-384.311458	124.629501	475.551868	-346.471395	148.722055	273.411275	-338.130370	-203.377517	867.447447	-207.100550	-49.503222	83.998244	-414.306866	-49.188280	79.240605	-17.608617	
3	0.0150	463.909301	1322.200630	-50.368507	486.448250	1328.200143	-381.557051	476.499175	1410.160599	-215.376187	489.543965	1254.887702	-211.889470	521.698672	1072.353607	32.442697	719.234447	922.867092	-32.849987	514.487494	1068.262335	-464.987752	712.023763	926.674754	-402.107713	-28.372706	1156.341781	-224.298921	156.357141	1081.761551	-376.381859	124.503210	1108.038798	-44.965559	153.430882	1015.389166	-346.242257	128.039870	1045.639301	-68.362881	10.626931	1185.785018	-190.600868	14.213643	1182.395667	-250.967390	72.355336	1061.536823	-9.433064	96.894154	1019.909804	-408.562489	168.617629	982.805050	-12.405262	254.234217	951.323889	-17.679744	308.569424	883.441830	-21.764061	270.991710	979.406211	-36.847031	367.764026	795.476846	-44.580478	362.177858	770.584769	-154.091734	332.624585	678.580707	-17.512911	326.592701	592.843239	-37.700472	281.612950	518.500178	-39.604338	347.659329	590.724093	-71.627208	250.337086	437.247895	-45.158470	189.650689	401.833295	-94.470229	465.240243	409.565731	-99.434904	372.638412	378.294690	-27.326848	127.118169	903.066222	-415.227396	186.244932	840.516490	-404.139244	216.999330	857.578600	-391.860759	206.450266	753.376315	-395.821811	219.802760	643.229086	-370.194341	210.289633	626.747674	-255.643508	-38.417920	370.856656	-378.495992	-119.075054	359.221429	-333.581861	64.709176	283.156858	-399.395030	151.303794	561.696519	-396.875102	108.032210	487.831835	-380.123921	32.162206	440.249956	-384.316157	124.601953	475.569527	-346.463616	148.696050	273.471282	-338.126469	-203.379378	867.447621	-207.092790	-49.501102	83.992633	-414.299549	-49.185046	79.229351	-17.609992	
4	0.0200	463.808349	1322.112859	-50.383909	486.466798	1328.198127	-381.522138	476.525759	1410.148452	-215.351156	489.586235	1254.869587	-211.890070	521.639615	1072.291691	32.505661	719.242209	922.853429	-32.839889	514.517130	1068.443977	-465.481843	712.034083	926.686390	-402.118761	-27.523556	1156.469614	-225.988381	156.385864	1081.770200	-376.308616	124.545194	1108.048725	-44.979576	153.165591	1016.747248	-348.020541	128.140514	1045.662826	-68.404202	10.675027	1185.760767	-190.603130	14.275118	1182.395180	-250.958862	72.512041	1061.312377	-9.229503	97.081861	1019.872763	-408.583345	168.854089	982.574111	-12.346088	254.190534	951.187021	-17.045316	308.597426	883.410180	-21.782756	271.093857	979.312889	-36.888422	367.813138	795.428986	-44.608973	362.333118	770.517084	-154.071078	332.543545	678.478940	-17.439634	326.270646	592.812693	-38.036113	281.615208	518.453937	-39.615492	347.861229	590.637152	-71.625304	250.425089	437.084679	-45.234659	189.684159	401.792098	-94.478690	465.263104	409.520394	-99.442428	372.651074	378.266148	-27.330896	127.139657	903.084075	-415.235794	186.276821	840.528413	-404.131151	216.922184	857.734181	-391.721199	206.486042	753.375601	-395.809969	219.917226	643.101899	-370.255553	210.274378	626.733068	-255.643865	-38.451457	370.630421	-378.111586	-119.094251	359.264587	-333.590425	64.710071	283.198341	-399.397268	151.470666	561.613257	-396.926704	107.895788	487.724885	-380.137491	32.359965	440.807001	-386.015695	124.164115	475.035973	-345.804790	148.692857	273.517970	-338.134466	-203.434186	867.436925	-207.268960	-49.506249	84.007031	-414.297925	-49.182542	79.222834	-17.602341	
